name rise49.25peak52.1432fall72.8391.mot
datacolumns 19
datarows 11
range 16.78326600000000 16.79993600000000
endheader
time	ground_force1_vx	ground_force1_vy	ground_force1_vz	ground_force1_px	ground_force1_py	ground_force1_pz	ground_force2_vx	ground_force2_vy	ground_force2_vz	ground_force2_px	ground_force2_py	ground_force2_pz	ground_torque1_x	ground_torque1_y	ground_torque1_z	ground_torque2_x	ground_torque2_y	ground_torque2_z	
16.78326600000000	-7.76640300000000	40.18609500000000	-11.36692800000000	0.31176200000000	0.00000000000000	0.08132500000000	-61.90434900000000	789.80028500000003	-39.80966300000000	0.11020200000000	0.00000000000000	-0.07551700000000	0.00000000000000	-7.33244500000000	0.00000000000000	0.00000000000000	-17.66922100000000	0.00000000000000	
16.78493800000000	-8.46108300000000	46.93567000000000	-12.73637400000000	0.31500000000000	0.00000000000000	0.08263200000000	-63.04204400000000	787.30529200000001	-39.37425500000000	0.10912800000000	0.00000000000000	-0.07539300000000	0.00000000000000	-8.28442400000000	0.00000000000000	0.00000000000000	-17.70356900000000	0.00000000000000	
16.78660500000000	-8.99481700000000	53.73412700000000	-13.96559400000000	0.31803900000000	0.00000000000000	0.08384400000000	-64.19146499999999	784.67475800000000	-38.92313900000000	0.10805000000000	0.00000000000000	-0.07526700000000	0.00000000000000	-9.16168000000000	0.00000000000000	0.00000000000000	-17.73981400000000	0.00000000000000	
16.78826800000000	-9.34685400000000	60.49369400000000	-15.02499600000000	0.32091000000000	0.00000000000000	0.08497100000000	-65.35054599999999	781.90390300000001	-38.45611100000000	0.10697000000000	0.00000000000000	-0.07514000000000	0.00000000000000	-9.94441100000000	0.00000000000000	0.00000000000000	-17.77761900000000	0.00000000000000	
16.78993600000000	-9.50553500000000	67.15015800000000	-15.89552900000000	0.32363900000000	0.00000000000000	0.08602300000000	-66.51709800000000	778.98793300000000	-37.97299600000000	0.10588800000000	0.00000000000000	-0.07501100000000	0.00000000000000	-10.61928600000000	0.00000000000000	0.00000000000000	-17.81662600000000	0.00000000000000	
16.79159800000000	-9.46809200000000	73.66469600000001	-16.56874600000000	0.32624800000000	0.00000000000000	0.08700800000000	-67.68881200000000	775.92205899999999	-37.47364600000000	0.10480600000000	0.00000000000000	-0.07487900000000	0.00000000000000	-11.17959900000000	0.00000000000000	0.00000000000000	-17.85645700000000	0.00000000000000	
16.79326500000000	-9.23974300000000	80.02331400000000	-17.04598800000000	0.32875200000000	0.00000000000000	0.08793400000000	-68.86326400000000	772.70151099999998	-36.95794300000000	0.10372600000000	0.00000000000000	-0.07474600000000	0.00000000000000	-11.62485700000000	0.00000000000000	0.00000000000000	-17.89671800000000	0.00000000000000	
16.79493500000000	-8.83229000000000	86.23433100000000	-17.33690800000000	0.33116600000000	0.00000000000000	0.08880500000000	-70.03792199999999	769.32155999999998	-36.42580300000000	0.10264800000000	0.00000000000000	-0.07461100000000	0.00000000000000	-11.95992200000000	0.00000000000000	0.00000000000000	-17.93699500000000	0.00000000000000	
16.79660300000000	-8.26241600000000	92.32444900000000	-17.45755900000000	0.33350100000000	0.00000000000000	0.08962800000000	-71.21015000000000	765.77753900000005	-35.87717800000000	0.10157400000000	0.00000000000000	-0.07447400000000	0.00000000000000	-12.19387200000000	0.00000000000000	0.00000000000000	-17.97685800000000	0.00000000000000	
16.79827100000000	-7.54987800000000	98.33398699999999	-17.42829500000000	0.33576500000000	0.00000000000000	0.09040600000000	-72.37721200000000	762.06485699999996	-35.31205900000000	0.10050500000000	0.00000000000000	-0.07433500000000	0.00000000000000	-12.33869500000000	0.00000000000000	0.00000000000000	-18.01586200000000	0.00000000000000	
16.79993600000000	-6.71575400000000	104.31181400000000	-17.27167600000000	0.33796600000000	0.00000000000000	0.09114400000000	-73.53628600000000	758.17902700000002	-34.73047600000000	0.09944300000000	0.00000000000000	-0.07419300000000	0.00000000000000	-12.40798500000000	0.00000000000000	0.00000000000000	-18.05355100000000	0.00000000000000	
